<svg xmlns="http://www.w3.org/2000/svg" xmlns:xlink="http://www.w3.org/1999/xlink" viewBox="0 0 354.79 354.89"><defs><style>.cls-1,.cls-10,.cls-11,.cls-12,.cls-13,.cls-14,.cls-15,.cls-16,.cls-2,.cls-3,.cls-4,.cls-5,.cls-6,.cls-7,.cls-8,.cls-9{stroke:#000;stroke-miterlimit:10;stroke-width:6px;}.cls-1{fill:url(#The_Bronze_Age_solid);}.cls-2{fill:url(#The_Bronze_Age_solid-2);}.cls-3{fill:url(#The_Bronze_Age_solid-3);}.cls-4{fill:url(#The_Bronze_Age_solid-4);}.cls-5{fill:url(#The_Bronze_Age_solid-5);}.cls-6{fill:url(#The_Bronze_Age_solid-6);}.cls-7{fill:url(#The_Bronze_Age_solid-7);}.cls-8{fill:url(#The_Bronze_Age_solid-8);}.cls-9{fill:url(#The_Bronze_Age_solid-9);}.cls-10{fill:url(#The_Bronze_Age_solid-10);}.cls-11{fill:url(#The_Bronze_Age_solid-11);}.cls-12{fill:url(#The_Bronze_Age_solid-12);}.cls-13{fill:url(#The_Bronze_Age_solid-13);}.cls-14{fill:url(#The_Bronze_Age_solid-14);}.cls-15{fill:url(#The_Bronze_Age_solid-15);}.cls-16{fill:url(#The_Bronze_Age_solid-16);}</style><linearGradient id="The_Bronze_Age_solid" x1="48.69" y1="81.59" x2="293.1" y2="81.59" gradientUnits="userSpaceOnUse"><stop offset="0" stop-color="#fff"/><stop offset="1" stop-color="#85400d"/></linearGradient><linearGradient id="The_Bronze_Age_solid-2" x1="25.08" y1="112.64" x2="262.14" y2="112.64" xlink:href="#The_Bronze_Age_solid"/><linearGradient id="The_Bronze_Age_solid-3" x1="157.77" y1="26.5" x2="319.4" y2="26.5" xlink:href="#The_Bronze_Age_solid"/><linearGradient id="The_Bronze_Age_solid-4" x1="101.3" y1="50.43" x2="314.33" y2="50.43" xlink:href="#The_Bronze_Age_solid"/><linearGradient id="The_Bronze_Age_solid-5" x1="3" y1="224.61" x2="122.26" y2="224.61" xlink:href="#The_Bronze_Age_solid"/><linearGradient id="The_Bronze_Age_solid-6" x1="10.17" y1="149.48" x2="226.16" y2="149.48" xlink:href="#The_Bronze_Age_solid"/><linearGradient id="The_Bronze_Age_solid-7" x1="4.81" y1="263.25" x2="67.8" y2="263.25" xlink:href="#The_Bronze_Age_solid"/><linearGradient id="The_Bronze_Age_solid-8" x1="3.51" y1="186.78" x2="180.19" y2="186.78" xlink:href="#The_Bronze_Age_solid"/><linearGradient id="The_Bronze_Age_solid-9" x1="50.46" y1="334.87" x2="176.6" y2="334.87" xlink:href="#The_Bronze_Age_solid"/><linearGradient id="The_Bronze_Age_solid-10" x1="33.95" y1="307.31" x2="235.11" y2="307.31" xlink:href="#The_Bronze_Age_solid"/><linearGradient id="The_Bronze_Age_solid-11" x1="56.23" y1="257.99" x2="305.26" y2="257.99" xlink:href="#The_Bronze_Age_solid"/><linearGradient id="The_Bronze_Age_solid-12" x1="205.3" y1="184.44" x2="343.42" y2="184.44" xlink:href="#The_Bronze_Age_solid"/><linearGradient id="The_Bronze_Age_solid-13" x1="248.29" y1="151.17" x2="351.19" y2="151.17" xlink:href="#The_Bronze_Age_solid"/><linearGradient id="The_Bronze_Age_solid-14" x1="284.09" y1="113.09" x2="351.79" y2="113.09" xlink:href="#The_Bronze_Age_solid"/><linearGradient id="The_Bronze_Age_solid-15" x1="315.44" y1="74.37" x2="349.39" y2="74.37" xlink:href="#The_Bronze_Age_solid"/><linearGradient id="The_Bronze_Age_solid-16" x1="153.17" y1="214.49" x2="327.53" y2="214.49" xlink:href="#The_Bronze_Age_solid"/></defs><g id="Layer_2" data-name="Layer 2"><g id="bean_path" data-name="bean path"><path class="cls-1" d="M157.49,79.1c44.41,6.1,72.36,26.29,104.65,40.71a223.1,223.1,0,0,0,31-33.69C228.12,68.2,178.73,22,101.28,54.86a273.22,273.22,0,0,0-52.59,54.52C52.83,104.28,84.41,68.83,157.49,79.1Z"/><path class="cls-2" d="M140.4,115.32c35.36,4.86,60.75,18.22,85.76,31a241.1,241.1,0,0,0,35-25.6c.33-.29.66-.6,1-.9C229.85,105.39,201.9,85.2,157.49,79.1,84.41,68.83,52.83,104.28,48.69,109.38c-3.93,5.42-7.71,11-11.29,16.74Q30.68,136.91,25.08,148C27.26,144,51.79,103.15,140.4,115.32Z"/><path class="cls-3" d="M314.33,50q1.49-3.3,2.87-6.67c3.36-8.27,3.34-8.28-3.39-13.9-1.32-1.11-2.61-2.27-4-3.3-22-16.58-47.12-23.2-76.49-23A105.85,105.85,0,0,0,215.62,4.2a209.5,209.5,0,0,0-57.85,16.33C216.89,2,261.26,32.38,314.33,50Z"/><path class="cls-4" d="M293.1,86.12A194.77,194.77,0,0,0,314.33,50C261.26,32.38,216.89,2,157.77,20.53A247.35,247.35,0,0,0,126.6,37.1a287.3,287.3,0,0,0-25.3,17.74h0C178.74,22,228.12,68.2,293.1,86.12Z"/><path class="cls-5" d="M3.5,223.12a182,182,0,0,0-.36,20.54A126.52,126.52,0,0,0,4.8,259.91s0,0,0,0c.68-1.41,14-27.4,63-30.06q4.24-3.76,8.72-7.36a270.88,270.88,0,0,1,45.74-29.46c-3.17-.61-6.43-1.16-9.78-1.62C24.27,179.31,3.82,222.44,3.5,223.12Z"/><path class="cls-6" d="M140.4,115.32C51.79,103.15,27.26,144,25.08,148a218.16,218.16,0,0,0-14.91,37.85c0-.06,21.42-45.91,114.51-33.12,21.47,2.95,39.25,9,55.51,16.25a317.67,317.67,0,0,0,46-22.71C201.15,133.54,175.76,120.18,140.4,115.32Z"/><path class="cls-7" d="M4.81,260a115.38,115.38,0,0,0,11.41,34.17c.52,1,.73,2.6,2.23,2.46,1.18-.11,1.28-1.54,1.7-2.48C31.28,269,47.54,247.84,67.8,229.87,17.48,232.61,4.83,259.94,4.81,260Z"/><path class="cls-8" d="M10.17,185.89A185.4,185.4,0,0,0,3.51,223s0,0,0,0c1-2.11,22.29-43.52,108.94-31.61,3.35.46,6.61,1,9.78,1.62A333.31,333.31,0,0,1,163,175.55q8.7-3.09,17.22-6.53c-16.26-7.2-34-13.3-55.51-16.25C31.59,140,10.2,185.83,10.17,185.89Z"/><path class="cls-9" d="M96.41,318.7c-36.15-5-45.61,13.28-45.95,14,0,0,0,0,0,0,20.64,13.7,43.82,19.35,69.18,19.2a175.47,175.47,0,0,0,56.92-9.53s0-.06,0-.06C140.1,346.1,128.54,323.11,96.41,318.7Z"/><path class="cls-10" d="M95.61,273.48c-16.28-2.24-29.18-1.91-39.38-.19a140.48,140.48,0,0,0-18.62,33.78c-5.23,13.71-5.86,10.26,4.83,19.72.7.62,1.43,1.19,2.17,1.75,1.93,1.46,3.87,2.83,5.84,4.14,0-.09,9.21-19,46-14,32.21,4.42,43.75,27.5,80.42,23.57a210.1,210.1,0,0,0,21.73-8.73,296,296,0,0,0,36.55-20.29C171.37,320.13,151.55,281.16,95.61,273.48Z"/><path class="cls-11" d="M153.17,201.92a273,273,0,0,0-53.26,29.3l2.59.34c69.61,9.56,93.62,57.91,173,49.34-79.33,8.57-103.34-39.78-172.95-49.34l-2.59-.34c-5.89,4.22-11.61,8.72-17.14,13.57a183,183,0,0,0-26.54,28.5c10.2-1.72,23.1-2.05,39.38.19,55.94,7.68,75.76,46.65,139.5,39.77a265.64,265.64,0,0,0,70.15-66.61C234,254.33,203,220.89,153.17,201.92Z"/><path class="cls-12" d="M248.29,157.15a300.17,300.17,0,0,1-43,24.07c34.44,17.63,66.91,35.3,122.23,29.33,1.67-3.21,3.3-6.45,4.88-9.76a214.76,214.76,0,0,0,11-27.85C302.62,177.35,274.22,168.93,248.29,157.15Z"/><path class="cls-13" d="M284.09,128.21q-5.56,5.39-11.52,10.47a270.21,270.21,0,0,1-24.28,18.47c25.93,11.78,54.33,20.2,95.13,15.79a179.13,179.13,0,0,0,7.77-38.81C324.18,137.05,302.87,134.07,284.09,128.21Z"/><path class="cls-14" d="M350.84,102.2c-.35-3.31-.84-6.57-1.45-9.8a159.5,159.5,0,0,1-33.95-1.49,230.12,230.12,0,0,1-31.35,37.3c18.78,5.86,40.09,8.84,67.1,5.92A166.5,166.5,0,0,0,350.84,102.2Z"/><path class="cls-15" d="M349.39,92.4A117,117,0,0,0,337.1,58c-.43-.78-.67-2-1.77-1.94s-1.22,1.25-1.64,2c-.32.58-.57,1.2-.84,1.8a220.09,220.09,0,0,1-17.41,31A159.5,159.5,0,0,0,349.39,92.4Z"/><path class="cls-16" d="M205.3,181.22q-14.69,6.75-30.12,12.19-11.18,3.94-22,8.51c49.82,19,80.82,52.41,152.09,44.72a286.52,286.52,0,0,0,22.27-36.09C272.21,216.52,239.74,198.85,205.3,181.22Z"/></g></g></svg>